<?xml version="1.0" encoding="utf-8"?>
<!-- Generator: Adobe Illustrator 15.0.0, SVG Export Plug-In . SVG Version: 6.00 Build 0)  -->
<!DOCTYPE svg PUBLIC "-//W3C//DTD SVG 1.1//EN" "http://www.w3.org/Graphics/SVG/1.1/DTD/svg11.dtd">
<svg version="1.1" id="Calque_1" xmlns="http://www.w3.org/2000/svg" xmlns:xlink="http://www.w3.org/1999/xlink" x="0px" y="0px"
	 width="15px" height="15px" viewBox="0 0 15 15" enable-background="new 0 0 15 15" xml:space="preserve">
<path d="M13.682,4.353V1.35h-3.341L9.547,0.636H0.709v13.718h13.718V5.022L13.682,4.353z M12.756,2.276v1.245l-1.385-1.245H12.756z
	 M13.501,13.43H1.635V1.562h7.555l4.312,3.873V13.43z"/>
<polygon points="4.13,12.172 6.446,9.855 9.18,7.123 9.18,11.582 10.756,10.006 10.756,4.432 5.181,4.432 3.605,6.008 8.064,6.008 
	5.331,8.741 3.016,11.057 "/>
<path d="M13.682,20.77v-3.002h-3.341l-0.794-0.715H0.709v13.718h13.718v-9.331L13.682,20.77z M10.756,26.423L9.18,27.999V23.54
	l-2.734,2.732L4.13,28.589l-1.114-1.115l2.315-2.315l2.733-2.733H3.605l1.576-1.575h5.575V26.423z M12.756,19.938l-1.385-1.244
	h1.385V19.938z"/>
</svg>
