<?xml version="1.0" encoding="utf-8"?>
<!-- Generator: Adobe Illustrator 15.0.0, SVG Export Plug-In . SVG Version: 6.00 Build 0)  -->
<!DOCTYPE svg PUBLIC "-//W3C//DTD SVG 1.1//EN" "http://www.w3.org/Graphics/SVG/1.1/DTD/svg11.dtd">
<svg version="1.1" id="Calque_1" xmlns="http://www.w3.org/2000/svg" xmlns:xlink="http://www.w3.org/1999/xlink" x="0px" y="0px"
	 width="32px" height="32px" viewBox="0 0 32 32" enable-background="new 0 0 32 32" xml:space="preserve">
<path display="none" fill="#424749" d="M28.522,30.847H3.477c-1.017,0-1.844-0.827-1.844-1.844V3.497
	c0-1.017,0.827-1.844,1.844-1.844h25.045c1.017,0,1.844,0.827,1.844,1.844v25.506C30.366,30.02,29.539,30.847,28.522,30.847z
	 M3.477,2.882c-0.339,0-0.615,0.275-0.615,0.614v25.506c0,0.339,0.276,0.615,0.615,0.615h25.045c0.339,0,0.614-0.276,0.614-0.615
	V3.497c0-0.339-0.275-0.614-0.614-0.614H3.477z"/>
<rect x="4.58" y="22.217" display="none" fill="#424749" width="5.989" height="5.989"/>
<rect x="12.233" y="22.217" display="none" fill="#424749" width="14.639" height="0.663"/>
<rect x="12.233" y="25.212" display="none" fill="#424749" width="7.146" height="0.663"/>
<rect x="4.58" y="4.803" display="none" fill="#424749" width="5.989" height="5.99"/>
<rect x="4.58" y="13.729" display="none" fill="#424749" width="5.989" height="5.989"/>
<rect x="12.233" y="13.729" display="none" fill="#424749" width="14.639" height="0.663"/>
<rect x="12.233" y="16.666" display="none" fill="#424749" width="9.581" height="0.663"/>
<rect x="12.233" y="4.803" display="none" fill="#424749" width="14.639" height="0.663"/>
<rect x="12.233" y="10.042" display="none" fill="#424749" width="7.146" height="0.663"/>
<rect x="12.233" y="7.466" display="none" fill="#424749" width="14.235" height="0.663"/>
<path fill="#424749" d="M28.554,30.82H3.571c-1.014,0-1.838-0.825-1.838-1.84V3.539c0-1.014,0.825-1.839,1.838-1.839h24.983
	c1.014,0,1.84,0.825,1.84,1.839V28.98C30.394,29.995,29.567,30.82,28.554,30.82z M3.571,2.926c-0.338,0-0.612,0.275-0.612,0.613
	V28.98c0,0.338,0.274,0.613,0.612,0.613h24.983c0.338,0,0.613-0.275,0.613-0.613V3.539c0-0.338-0.275-0.613-0.613-0.613H3.571z"/>
<rect x="21.432" y="13.55" fill="#424749" width="5.841" height="5.843"/>
<rect x="13.204" y="13.55" fill="#424749" width="5.843" height="5.843"/>
<rect x="4.977" y="13.55" fill="#424749" width="5.844" height="5.843"/>
<rect x="21.432" y="4.842" fill="#424749" width="5.841" height="5.843"/>
<rect x="13.204" y="4.842" fill="#424749" width="5.843" height="5.843"/>
<rect x="4.977" y="4.842" fill="#424749" width="5.844" height="5.843"/>
<rect x="13.204" y="21.83" fill="#424749" width="5.843" height="5.843"/>
<rect x="4.977" y="21.83" fill="#424749" width="5.844" height="5.843"/>
</svg>
